<svg xmlns="http://www.w3.org/2000/svg" viewBox="0 0 35 46.57"><polygon points="0.6 31.5 6.43 0.5 29.43 0.5 34.41 31.5 0.6 31.5" style="fill:#b3b3b3"/><path d="M44,15l4.83,30H16.21l5.64-30H44m.86-1H21L15,46H50L44.86,14Z" transform="translate(-15 -14)"/><rect x="3.5" y="31.5" width="2" height="14"/><path d="M20,46V59H19V46h1m1-1H18V60h3V45Z" transform="translate(-15 -14)"/><rect x="30.5" y="31.5" width="2" height="14"/><path d="M47,46V59H46V46h1m1-1H45V60h3V45Z" transform="translate(-15 -14)"/><rect x="12.5" y="12.5" width="12" height="19" style="fill:#fff"/><path d="M39,27V45H28V27H39m1-1H27V46H40V26Z" transform="translate(-15 -14)"/><line x1="12.5" y1="31.5" x2="10.5" y2="46.5" style="fill:none;stroke:#000;stroke-miterlimit:10"/><line x1="24.5" y1="31.5" x2="23.5" y2="46.5" style="fill:none;stroke:#000;stroke-miterlimit:10"/><line x1="11.5" y1="35.5" x2="24.5" y2="35.5" style="fill:none;stroke:#000;stroke-miterlimit:10"/><line x1="11.5" y1="39.5" x2="23.5" y2="39.5" style="fill:none;stroke:#000;stroke-miterlimit:10"/><line x1="10.5" y1="43.5" x2="23.5" y2="43.5" style="fill:none;stroke:#000;stroke-miterlimit:10"/><circle cx="18.5" cy="18.5" r="3" style="fill:#00bee9;stroke:#000;stroke-miterlimit:10"/></svg>