<svg xmlns="http://www.w3.org/2000/svg" viewBox="0 0 98.39 60.36"><path d="M70.11,56a7.12,7.12,0,1,1-14.22,0A7.63,7.63,0,0,1,57,52a7,7,0,0,1,6-3.46,6.85,6.85,0,0,1,3.46.94A7.3,7.3,0,0,1,69,52a7.44,7.44,0,0,1,1.09,3.66A1.88,1.88,0,0,1,70.11,56Z" transform="translate(-0.71 -28)" style="fill:#eee"/><path d="M44.11,56a7.12,7.12,0,1,1-14.22,0,1.88,1.88,0,0,1,0-.34A7.44,7.44,0,0,1,31,52a7.3,7.3,0,0,1,2.54-2.52A6.85,6.85,0,0,1,37,48.54,7,7,0,0,1,43,52,7.63,7.63,0,0,1,44.11,56Z" transform="translate(-0.71 -28)" style="fill:#eee"/><path d="M73.08,32q-.31.18-.63.39A13.57,13.57,0,0,0,70,34.46c-.23.24-.45.48-.66.74A15.22,15.22,0,0,0,65.81,45c0,.26,0,.53,0,.79a13.52,13.52,0,0,0,.3,2.31A8.38,8.38,0,0,0,63,47.5,8.5,8.5,0,0,0,55.5,52h-11A8.5,8.5,0,0,0,37,47.5a8.38,8.38,0,0,0-3.13.6,13.52,13.52,0,0,0,.3-2.31c0-.26,0-.53,0-.79a15.22,15.22,0,0,0-3.51-9.8c-.21-.26-.43-.5-.66-.74a13.57,13.57,0,0,0-2.47-2.07L26.92,32Z" transform="translate(-0.71 -28)" style="fill:#eee"/><path d="M20,30.1a13.83,13.83,0,0,0-10,4.33,11,11,0,0,1,20,0,13.57,13.57,0,0,0-2.47-2.07L26.92,32A13.44,13.44,0,0,0,20,30.1Z" transform="translate(-0.71 -28)" style="fill:#eee"/><path d="M72.45,32.39A13.57,13.57,0,0,0,70,34.46a11,11,0,0,1,20,0A13.83,13.83,0,0,0,80,30.1,13.44,13.44,0,0,0,73.08,32Q72.77,32.18,72.45,32.39Z" transform="translate(-0.71 -28)" style="fill:#eee"/><path d="M90.73,88.27c-6.24,1-12.84-7.2-14.74-18.44a34.47,34.47,0,0,1-.26-10.18c0-.15,0-.29.07-.43l.1,0a12.94,12.94,0,0,0,4.1.64,14.07,14.07,0,0,0,12.59-8l0,0a30.11,30.11,0,0,1,6,14.12C100.5,77.25,97,87.21,90.73,88.27Z" transform="translate(-0.71 -28)" style="fill:#eee"/><path d="M91,39.31a13,13,0,0,0-2.32-3.45A12,12,0,0,0,80,32.08a11.7,11.7,0,0,0-5,1.12,12.3,12.3,0,0,0-1.5.85,11.91,11.91,0,0,0-2.69,2.42A12.59,12.59,0,0,0,69,39.3a13.34,13.34,0,0,0-1.22,5.6c0,.23,0,.45,0,.68a13.13,13.13,0,0,0,.85,4.08h0A13,13,0,0,0,69.82,52a12.71,12.71,0,0,0,1.39,1.8,12.19,12.19,0,0,0,2.29,2,.41.41,0,0,0,.11.07,10.85,10.85,0,0,0,2.61,1.26,1.84,1.84,0,0,0,.25.09,11.15,11.15,0,0,0,3.53.56,12.16,12.16,0,0,0,11-7.24l.09-.21h0a13.14,13.14,0,0,0,1.13-5.37A13.29,13.29,0,0,0,91,39.31Zm-9,14H78V46.87H71.61V42.93H78V36.51H82v6.42h6.42v3.94H82Z" transform="translate(-0.71 -28)" style="fill:#eee"/><path d="M23.84,69.43C21.94,80.67,15.33,88.92,9.1,87.87s-9.77-11-7.87-22.26a30.22,30.22,0,0,1,6-14.12h0A14.12,14.12,0,0,0,20,59.9a12.88,12.88,0,0,0,4.09-.64A34.39,34.39,0,0,1,23.84,69.43Z" transform="translate(-0.71 -28)" style="fill:#eee"/><path d="M31,39.4A12.93,12.93,0,0,0,28.67,36,12,12,0,0,0,20,32.17c-.34,0-.67,0-1,0a12.1,12.1,0,0,0-8.19,4.36A12.59,12.59,0,0,0,9,39.4,13.34,13.34,0,0,0,7.79,45c0,.23,0,.45,0,.68a12.88,12.88,0,0,0,.91,4.22,12.51,12.51,0,0,0,4.78,6,.41.41,0,0,0,.11.07,11,11,0,0,0,2.86,1.35,11.15,11.15,0,0,0,3.53.56,11.41,11.41,0,0,0,3.71-.61,12,12,0,0,0,5.05-3.29A12.6,12.6,0,0,0,30.23,52,13.59,13.59,0,0,0,31,50.59c.15-.32.28-.64.4-1A13.05,13.05,0,0,0,32.21,45,13.34,13.34,0,0,0,31,39.4ZM13,48a3,3,0,1,1,3-3A3,3,0,0,1,13,48Zm7,7a3,3,0,1,1,3-3A3,3,0,0,1,20,55Zm0-14a3,3,0,1,1,3-3A3,3,0,0,1,20,41Zm7,7a3,3,0,1,1,3-3A3,3,0,0,1,27,48Z" transform="translate(-0.71 -28)" style="fill:#eee"/></svg>