<svg xmlns="http://www.w3.org/2000/svg" viewBox="0 0 82.14 80.12"><path d="M50,9.94A41.08,41.08,0,0,0,37,90c2,.37,2.8-.89,2.8-2s0-3.56,0-7c-11.43,2.48-13.84-5.5-13.84-5.5-1.87-4.75-4.56-6-4.56-6-3.73-2.55.28-2.5.28-2.5,4.12.29,6.29,4.23,6.29,4.23,3.67,6.28,9.62,4.47,12,3.42a8.74,8.74,0,0,1,2.6-5.49c-9.12-1-18.7-4.56-18.7-20.3a15.89,15.89,0,0,1,4.22-11A14.78,14.78,0,0,1,28.43,27s3.44-1.11,11.29,4.21a38.71,38.71,0,0,1,20.56,0C68.13,25.87,71.57,27,71.57,27A14.78,14.78,0,0,1,72,37.85a15.84,15.84,0,0,1,4.22,11c0,15.78-9.6,19.25-18.75,20.26,1.47,1.27,2.78,3.78,2.78,7.61,0,5.49,0,9.92,0,11.27,0,1.1.74,2.37,2.83,2a41.08,41.08,0,0,0-13-80Z" transform="translate(-8.93 -9.94)" style="fill:#eee;fill-rule:evenodd"/></svg>