<svg id="Layer_1" data-name="Layer 1" xmlns="http://www.w3.org/2000/svg" viewBox="0 0 198.32 222.33"><defs><style>.cls-1{fill:#82c3cb;}.cls-2{fill:#cb82c6;}.cls-3{fill:#956191;}.cls-4{fill:#fcfcfc;}.cls-5{fill:#060606;}.cls-6{fill:#fbfbfb;}.cls-7{fill:#639096;}.cls-8{fill:#080b07;}</style></defs><path class="cls-1" d="M590.52,282.27c0-1-1.68-.36-1.34-1.47a2.1,2.1,0,0,1,1-1.1.59.59,0,0,1,.37-.07c.47.08.75.7.79.8.53,1.11,8.28,8.43,11.53,12.16,7.71,8.88,7.11,17.31,13.74,23.93,1.58,1.58,3.84,3.76,6.91,3.88,3.59.14,6.33-2.54,7.53-3.65,7.69-7.06,18.22-10.36,25.77-12.72,9-2.8,16.76-2.64,24.14-2.39a116.21,116.21,0,0,1,17.27,1.88c1.59.29,3.52.65,5.88,1.23,0,0,1.4.34,2.7.7,6.25,1.74,19.66,9.24,25.78,9.23a12,12,0,0,0,2.75-.35,10.78,10.78,0,0,0,4.17-2.23,42.52,42.52,0,0,0,6.62-4.6,45.12,45.12,0,0,0,4.58-4.42c4.75-5.31,7.62-11.17,10-15.32a83.12,83.12,0,0,1,10.61-14.62,12.81,12.81,0,0,0-1.13,1.85,13.6,13.6,0,0,0-.79,2l-1.21,2.66h0l-.45.9,0,0-.45,1,0,.2-.86,1.86h0l-1.77,4c-.28.86-.57,1.72-.85,2.58-.15.59-.29,1.19-.44,1.78a82,82,0,0,0-4,17.22c-.48,4.29-.75,8.53.5,12.73a9.19,9.19,0,0,1,.13,5.58,8.11,8.11,0,0,1-.77,1.77c-.34,1.59-.67,3.18-1,4.76l-.54,5.48.48,4.71c.2.92.5,2.31.87,4,.59,2.69.9,4,1,4.43a58.08,58.08,0,0,0,3,8c.59,1.43,1.09,2.59,1.42,3.35s.87,1.75,1.38,3a36,36,0,0,1,1.64,4.75,15.23,15.23,0,0,1,.76,4,19.37,19.37,0,0,1-.42,3.79c-.14.74-.29,1.35-.4,1.78a70.3,70.3,0,0,1-2.82,8.55c-3.82,9.5-8.16,13.44-12.68,22.17-2.62,5.07-4.57,10.41-6.91,15.59-5.56,12.3-9.3,25.24-13.59,38a65.12,65.12,0,0,1-5,11.36c-1.79,3.16-3.06,6.61-4.69,9.87-1.95,3.89-4.59,7.18-9,8.29-3.63.91-7.09.49-10-2.2a6.87,6.87,0,0,0-4.93-1.9,113.76,113.76,0,0,0-12.24.4c-5.05.52-8.94-2-12.41-5.37-3.77-3.64-5.76-8.39-8.1-12.9-5-9.57-10.88-18.61-16-28.09a150.06,150.06,0,0,0-10.6-17.32c-3.47-4.89-5.91-7.68-11-15.26-1.09-1.63-3.09-4.64-5.5-8.53-3.28-5.27-4.91-7.91-6-10.15-2.39-5-5.12-10.77-4.51-17.74.22-2.44.6-2.21,2.31-11.37a63.11,63.11,0,0,0,1.25-7.1,51,51,0,0,0,0-7.29,35.8,35.8,0,0,0-.54-5.15c-.64-3.29-1.5-4.33-2.88-8.54a49.09,49.09,0,0,1-1.56-5.62c-1.27-5.67-2.28-11.4-4.42-16.85-2.84-7.23-5.44-14.56-8.4-21.74-1.16-2.84-2.42-5.76-4.76-8Z" transform="translate(-583.77 -273.13)"/><path class="cls-2" d="M590.84,282.35l1.49,2a20.19,20.19,0,0,1,1.94,2.29,21.85,21.85,0,0,1,3.35,7,44.45,44.45,0,0,0,.09,7.76,70.55,70.55,0,0,0,5.1,18.65c1.6,3.71,3,6,2.54,9.18a7.1,7.1,0,0,0,0,3.59c.82,2.49,3.22,3.47,3.06,3.81s-2.64-.29-11-3.55C593,330,586.82,324.4,584.54,316c-1-3.65-.84-6.89-.56-13.37a84.6,84.6,0,0,1,3.67-18.89,11.16,11.16,0,0,1,.63-1.54c.57-1.24.78-1.34.9-1.37C589.66,280.69,590.32,281.36,590.84,282.35Z" transform="translate(-583.77 -273.13)"/><path class="cls-2" d="M770,277.38a24.21,24.21,0,0,1,.89-2.38,5.63,5.63,0,0,0,.4-1.86c3.1,1.59,4.67,4.55,6.21,7.38,4.21,7.74,5.93,16,3.4,24.63-1.41,4.83-4.77,8.59-8.17,12.18a33.81,33.81,0,0,1-7.61,6.17,11.18,11.18,0,0,1-.89-4.44c-.45-8.06,1-15.91,2.46-23.77.87-4.7,1.56-9.44,2.71-14.09,0-.11.05-.81.19-1.75A14.57,14.57,0,0,1,770,277.38Z" transform="translate(-583.77 -273.13)"/><path class="cls-3" d="M769.64,276.21c.67-1.5,1.45-3.15,1.66-3.07s-.9,4-1.89,8.06c-.48,1.95-.72,3.31-2.71,14.09-1.45,7.86-2.91,15.71-2.46,23.77a11.18,11.18,0,0,0,.89,4.44c-1.37,1.77-3.56,2.46-5.16,3.92,0-1.86-.08-3.72-.13-5.58a39.92,39.92,0,0,1-.79-4.24c-1-7.39.43-13.25,2-19.56A99.58,99.58,0,0,1,765,285.72s1.23-2.47,1.24-2.48l.83-1.66C767.53,280.56,768.34,278.92,769.64,276.21Z" transform="translate(-583.77 -273.13)"/><path class="cls-4" d="M662.81,380.58c-7.14,7-7.23,7.19-9.48,9.13-2.66,2.29-5.93,3.89-8.93,5.79-5.11.19-7.93-3.18-10.68-6.77-7.88-10.3-7.09-24,2.18-33a45.82,45.82,0,0,1,16.49-10c4.57-1.66,8.89-1.23,12.78,1.84a22.84,22.84,0,0,1,5.49,5.61c1.2,1.93,4,6.14,3.35,11.46-.42,3.24-1.93,5.42-3.88,8.22C668.62,375.05,667.7,375.81,662.81,380.58Z" transform="translate(-583.77 -273.13)"/><path class="cls-5" d="M658.63,380.18c-.91-.07-5.46-.52-7.46-4.24a7.75,7.75,0,0,1-.91-3.92c.12-4.57,3.83-8.26,8.09-8,5.09.26,8.44,5.37,7.54,9.37l-.21.44.55-.05c.71-.5,1.45-1,2.13-1.52,6.72-5.29,7.85-10.16,2.3-19a22.84,22.84,0,0,0-5.49-5.61c-3.89-3.07-8.21-3.5-12.78-1.84a45.82,45.82,0,0,0-16.49,10c-9.27,9-10.06,22.66-2.18,33,2.75,3.59,5.57,7,10.68,6.77-1.39,1.26-4.5,1.3-6.28-.26-5-4.41-9.32-9.35-11.16-16.05-2.68-9.79-.23-18.26,6.67-25.37A44.24,44.24,0,0,1,653.33,342c5.35-1.55,10.13-.14,14.48,3.42,5.5,4.5,9.26,9.85,9.7,17.14a11,11,0,0,1-3,8.42c-2.27,2.48-5.06,6-10.25,8A12.06,12.06,0,0,1,658.63,380.18Z" transform="translate(-583.77 -273.13)"/><path class="cls-6" d="M734.34,374.39c-2.39-2.09-5.19-3.59-7.79-5.37,4.87.24,6.48-1,7.15-5.25a9.88,9.88,0,0,0-1.12-6.33c-1.17-2.17-3.46-1.91-5.58-2a15.69,15.69,0,0,1,3.33-5.15c4.19-4.42,9.26-4.77,13.7-.64A30.16,30.16,0,0,1,752,362.74a11.58,11.58,0,0,1-2.68,11.78c-2.22,2.51-7,3.72-9.84,2.48-1.84-.79-2.18-1.69-1.15-3.3.4,1.48,1.4,2,2.68,1.43s1.38-1.8,1.11-3a3,3,0,0,0-3.83-2A5.18,5.18,0,0,0,734.34,374.39Z" transform="translate(-583.77 -273.13)"/><path class="cls-5" d="M734.34,374.39a5.18,5.18,0,0,1,3.9-4.25,3,3,0,0,1,3.83,2c.27,1.21.12,2.45-1.11,3s-2.28.05-2.68-1.43c-1,1.61-.69,2.51,1.15,3.3,2.84,1.24,7.62,0,9.84-2.48A11.58,11.58,0,0,0,752,362.74,30.16,30.16,0,0,0,744,349.62c-4.44-4.13-9.51-3.78-13.7.64a15.69,15.69,0,0,0-3.33,5.15c2.12.12,4.41-.14,5.58,2a9.88,9.88,0,0,1,1.12,6.33c-.67,4.27-2.28,5.49-7.15,5.25a10.25,10.25,0,0,1-4-2.79,5.14,5.14,0,0,1-1.62-3.36,3.75,3.75,0,0,1,.42-1.59c2.26-4.61,2.4-7,4.7-10.52,5.9-9.05,16.45-9.37,22.74-.56,2.79,3.92,5.4,7.94,6.55,12.72,2.36,9.77-5,18.51-14.83,17.63A6.3,6.3,0,0,1,734.34,374.39Z" transform="translate(-583.77 -273.13)"/><path class="cls-5" d="M722.71,408.29c-.11-1.87-.21-3.48-.3-5.08a3.33,3.33,0,0,1,.45-2.31c.26-.35.61-.71,1.1-.55s.59.59.5,1.07c-.59,3,.23,5.95.63,8.87.69,5-.86,9.27-3.57,13.17-2.93,4.22-6.73,5.28-12,3.71a25,25,0,0,1-5.5-2.11c-3.88-2.27-7.38-1.53-10.83.81-3.23,2.18-6.91,3.19-10.37,1.42-6.72-3.43-12.55-8-14.48-15.87a8.69,8.69,0,0,1,1.81-7.6c.75-1,1.65-1.57,2.79-.8s.7,1.73.16,2.7c-2,3.62-1.77,6.82.87,10.06a50.2,50.2,0,0,0,7.27,6.94,7.73,7.73,0,0,0,8.82,1c1-.52,2-1.14,3-1.74a11,11,0,0,1,11.25-.56,40.23,40.23,0,0,0,6.71,2.62,6.89,6.89,0,0,0,8.27-2.77c2.38-3.27,3.85-6.85,3.38-11A15.48,15.48,0,0,1,722.71,408.29Z" transform="translate(-583.77 -273.13)"/><path class="cls-5" d="M688.1,352a4.46,4.46,0,0,1,1.51-4c3.25-3.28,11.26-3.53,16-.53,5,3.14,7.53,9,6,13.84a11.85,11.85,0,0,1-4.55,5.73c-2.28,1.7-4.61,3.34-6.94,5-7.21,5.05-8.26,11-5.25,20.56a27.19,27.19,0,0,0,1.21,2.57,1.8,1.8,0,0,1-3.16,1.7c-5.25-7.12-3.82-19.86,2.88-25.69a85.76,85.76,0,0,1,8.11-6c3-2,5.67-4.24,5-8.25a11.34,11.34,0,0,0-7.73-9.26,16.07,16.07,0,0,0-5.82-.92,6.5,6.5,0,0,0-6.41,4.57C688.8,351.71,688.7,352,688.1,352Z" transform="translate(-583.77 -273.13)"/><path class="cls-7" d="M659.89,435.63c0,.79,0,1.57-.84,1.67s-.83-.62-1-1.21c-.7-3.3-3.31-5.39-5.16-7.95-2.86-3.95-6.8-6.71-10.66-9.58-1-.78-3.18-1.64-2.24-3.18,1.07-1.74,2.5.27,3.44.85A41.44,41.44,0,0,1,659,432.64,7.59,7.59,0,0,1,659.89,435.63Z" transform="translate(-583.77 -273.13)"/><path class="cls-7" d="M735.64,429.09c1.2-3.27,2.4-6.86,4.94-9.78a33.22,33.22,0,0,1,3.33-3.16c.32-.28.87-.79,1.32-.21s-.06.94-.42,1.31c-1.65,1.74-3.61,3.17-4.76,5.38a44.92,44.92,0,0,0-3,7c-.15.49-.2,1.14-.84,1.06S735.82,429.89,735.64,429.09Z" transform="translate(-583.77 -273.13)"/><path class="cls-8" d="M698.5,405.82c-.37,1.45-1.07,2.36-2.58,2.29a3.07,3.07,0,0,1-2.44-3.37,2.18,2.18,0,0,1,2.6-2A3.14,3.14,0,0,1,698.5,405.82Z" transform="translate(-583.77 -273.13)"/><path class="cls-7" d="M711.46,469.05a1.11,1.11,0,0,1-.73,1,32.62,32.62,0,0,0-4.92,2.7c-.5.29-1.14.5-1.51-.17s.12-1,.57-1.24c1.73-1,3.27-2.38,5.29-2.9C710.84,468.29,711.28,468.33,711.46,469.05Z" transform="translate(-583.77 -273.13)"/><path class="cls-7" d="M688.25,472.92c-.1.13-.2.4-.34.42a1.1,1.1,0,0,1-.81-.15,14.45,14.45,0,0,0-5.5-3.45.86.86,0,0,1-.42-.66c0-.37.35-.39.63-.42,1.27-.13,6,2.82,6.33,4A2.55,2.55,0,0,0,688.25,472.92Z" transform="translate(-583.77 -273.13)"/><path class="cls-3" d="M597.62,293.6a151.7,151.7,0,0,1,6.61,16.11,95.92,95.92,0,0,1,4.08,13.87c.38,1.94.85,4.73,1.94,8.74.7,2.6,1.4,4.71,1.88,6.1l-4-1.43a5.62,5.62,0,0,1-1.94-.83c-1.34-1.19-1.11-3.47-1.07-4.12.31-4.25-2.38-6.18-5.48-19.42a75,75,0,0,1-1.92-11.26A57.41,57.41,0,0,1,597.62,293.6Z" transform="translate(-583.77 -273.13)"/></svg>