<svg xmlns="http://www.w3.org/2000/svg" viewBox="0 0 71.39 75.3"><path d="M23.53,16.5v67H76.47v-67ZM27.6,78.1a1.22,1.22,0,1,1,1.22-1.22A1.21,1.21,0,0,1,27.6,78.1Zm0-4.88A1.23,1.23,0,1,1,28.82,72,1.22,1.22,0,0,1,27.6,73.22Zm0-4.89a1.23,1.23,0,1,1,1.22-1.22A1.22,1.22,0,0,1,27.6,68.33Zm0-4.89a1.22,1.22,0,1,1,1.22-1.22A1.22,1.22,0,0,1,27.6,63.44Zm0-4.89a1.22,1.22,0,1,1,1.22-1.22A1.21,1.21,0,0,1,27.6,58.55Zm0-4.88a1.23,1.23,0,1,1,1.22-1.23A1.22,1.22,0,0,1,27.6,53.67Zm0-4.89a1.23,1.23,0,1,1,1.22-1.22A1.22,1.22,0,0,1,27.6,48.78Zm0-4.89a1.22,1.22,0,1,1,1.22-1.22A1.22,1.22,0,0,1,27.6,43.89Zm0-4.89a1.22,1.22,0,1,1,1.22-1.22A1.21,1.21,0,0,1,27.6,39Zm0-4.88a1.23,1.23,0,1,1,1.22-1.23A1.22,1.22,0,0,1,27.6,34.12Zm0-4.89A1.23,1.23,0,1,1,28.82,28,1.22,1.22,0,0,1,27.6,29.23Zm0-4.89a1.22,1.22,0,1,1,1.22-1.22A1.21,1.21,0,0,1,27.6,24.34ZM66,39H35V30H66Z" transform="translate(-14.5 -16.5)" style="fill:#eee"/><rect x="42.36" y="62.79" width="49.56" height="7.59" transform="translate(-41.02 63.12) rotate(-52.68)" style="fill:#eee;stroke:#000;stroke-miterlimit:10"/><polygon points="34.81 68.06 39.98 71.99 33.98 74.5 34.81 68.06" style="fill:#eee;stroke:#000;stroke-miterlimit:10"/><line x1="61.6" y1="33.07" x2="67.17" y2="37.17" style="fill:none;stroke:#000;stroke-miterlimit:10"/><line x1="8.5" y1="32.5" y2="32.5" style="fill:none"/></svg>