<svg xmlns="http://www.w3.org/2000/svg" viewBox="0 0 85.66 61.2"><path d="M112,96" transform="translate(-6.83 -19.43)" style="fill:#eee"/><path d="M111.17,62" transform="translate(-6.83 -19.43)" style="fill:#eee"/><path d="M77,71.56a18.11,18.11,0,0,0-3-1c-2.36-.57-4.63-.63-10,0a61.35,61.35,0,0,0-7,1A29.59,29.59,0,0,0,48,75c-4.85,3-6.08,6.12-8,5.56-1.36-.4-1-1.93-3-5-1.11-1.75-3.12-3.14-7-6A22.15,22.15,0,0,0,26,67a17.37,17.37,0,0,0-5-1.44,18.21,18.21,0,0,1,4.3-11.8L39.94,68.4l34.87-9.34A19.87,19.87,0,0,1,77,71.56Z" transform="translate(-6.83 -19.43)" style="fill:#eee"/><path d="M92.5,52.66l-52.43,14L6.83,33.48,12,32.11,46,43.52a2.15,2.15,0,0,0,.51.77,3.49,3.49,0,0,0,4,.64,1.85,1.85,0,0,0,.39-3.08,3.5,3.5,0,0,0-4-.64,2.54,2.54,0,0,0-.49.35L15.43,31.18,59.26,19.43Z" transform="translate(-6.83 -19.43)" style="fill:#eee"/><circle cx="5.83" cy="30.64" r="3.5" style="fill:#eee"/><path d="M14.17,63.57h-4a22.55,22.55,0,0,1,0-7,21.2,21.2,0,0,1,1-4h3a14.62,14.62,0,0,1,1,4A15.07,15.07,0,0,1,14.17,63.57Z" transform="translate(-6.83 -19.43)" style="fill:#eee"/><rect x="4.83" y="13.14" width="2" height="15" style="fill:#eee"/></svg>