<?xml version="1.0" encoding="UTF-8"?><svg id="a" xmlns="http://www.w3.org/2000/svg" viewBox="0 0 367.28 223.8"><defs><style>.b{fill:#dfe99e;}.b,.c,.d,.e,.f,.g,.h,.i,.j,.k,.l,.m,.n{stroke-width:0px;}.c{fill:#fdf9cb;}.d{fill:#6b993e;}.e{fill:#006a66;}.o{opacity:.38;}.f{fill:#2b318b;}.g{fill:#d42027;}.h{fill:#231f20;}.p{opacity:.76;}.i{fill:#73702e;}.j{fill:#594a42;}.k{fill:#2e3192;}.l{fill:#5e6c2f;}.m{fill:#463d05;}.n{fill:#7c2268;}</style></defs><path class="c" d="m364.61,82.1c-.96,5.2-4.94,9.51-9.7,11.79-4.77,2.28-10.23,2.74-15.5,2.33,5.56,4.24,9.75,10.4,11.06,17.26.29,1.52.43,3.07.42,4.62-.03,5.45-1.88,10.9-5.5,14.96-1.78,2-4.03,3.69-6.64,4.28-2.06.46-4.2.22-6.29-.03-1.69-.19-3.42-.41-4.89-1.24-1.03-.58-1.86-1.43-2.64-2.32-4.67-5.3-7.53-12.17-8.01-19.22-.07-1.06-.1-2.15-.51-3.13-.93-2.21-3.31-3.27-5.37-3.92-6.35-2.01-20.29-2.87-31.89-5.71-6.51-1.59-12.28-3.81-15.56-7.22-10.06-10.45-2.1-37.71,6.63-39.77,1.52-.36,5.1,1.05,12.26,3.86,4.92,1.93,9.19,3.76,11.75,5.02,4.52,2.21,9.14,4.19,13.77,6.16,2.38,1.02,4.82,2.05,7.41,2.19,2.33.13,4.64-.48,6.9-1.09,1.08-.29,2.17-.59,3.09-1.22,1.18-.83,1.93-2.13,2.69-3.36,2.21-3.55,4.99-6.89,8.69-8.85,4.88-2.59,11.14-2.35,15.82.59,3.08,1.94,5.4,4.87,7.39,7.93,3.13,4.79,5.66,10.47,4.62,16.09Z"/><path class="i" d="m362.2,81.44c-.85,4.3-3.78,7.7-7.57,9.79-4.61,2.54-10.08,2.87-15.22,2.5-2.03-.15-3.48,2.94-1.77,4.27,8.45,6.53,13.29,17.41,9.29,27.83-1.71,4.45-5.49,9.23-10.64,9.28-1.42.01-2.85-.15-4.26-.34-1.21-.16-2.51-.36-3.54-1.05-2.03-1.36-3.6-3.86-4.83-5.91-1.39-2.32-2.46-4.79-3.2-7.39-.36-1.27-.64-2.55-.84-3.86-.22-1.49-.2-3.01-.46-4.5-.88-5.11-6.27-6.86-10.69-7.79-10.36-2.17-21-2.68-31.23-5.57-4.44-1.25-9.26-2.9-12.4-6.46-1.77-2.01-2.91-5.58-3.25-8.36-.47-3.83-.18-7.67.57-11.25s1.84-6.97,3.55-10.06c.35-.63.72-1.25,1.12-1.85.21-.31.43-.62.66-.92-.29.38,0,0,.08-.09.16-.18.32-.37.48-.55.4-.43.82-.83,1.27-1.21-.51.42.24-.15.37-.23.15-.1.91-.48.59-.34-.36.16.33-.09.45-.14.64-.28-.59.14.04,0,.1-.02.23.02.34.02.33,0-.66-.15-.13-.02.3.08.6.12.9.2,1.87.48,3.68,1.2,5.47,1.89,5.09,1.95,10.2,3.9,15.11,6.26,5.7,2.74,11.49,5.48,17.41,7.7,3.02,1.13,6.02,1.47,9.21.96,2.8-.45,6.18-1.13,8.39-3,2.02-1.71,3.1-4.38,4.71-6.45s3.53-3.9,5.86-5.13c4.39-2.33,9.95-1.79,13.97,1.04,2.01,1.42,3.64,3.4,5.03,5.4,1.61,2.33,3.14,4.82,4.12,7.48.92,2.5,1.49,5.2,1.04,7.86-.22,1.33.35,2.69,1.75,3.08,1.2.33,2.85-.41,3.08-1.75,1.12-6.64-1.48-12.9-5.09-18.36-3.25-4.91-7.45-9.3-13.37-10.69s-12.18.24-16.85,4.29c-2.2,1.91-4,4.28-5.56,6.72-.6.94-1.12,2.09-2.01,2.81-1.11.91-2.96,1.11-4.31,1.44-1.46.35-2.91.61-4.42.53-1.59-.09-3.15-.65-4.63-1.22-3.15-1.23-6.25-2.63-9.34-4.01-5.5-2.46-10.89-5.09-16.49-7.33-2.74-1.1-5.48-2.19-8.25-3.2-1.53-.56-3.09-1.14-4.71-1.39-3.17-.49-5.91,1.39-7.88,3.73-5.13,6.09-7.38,14.79-7.69,22.61-.16,3.98.26,8.16,1.78,11.87,1.79,4.38,4.93,7.55,9.14,9.71,5.27,2.69,11.16,4.07,16.95,5.16s11.51,1.8,17.27,2.68c2.29.35,4.59.72,6.85,1.26,1.75.42,4.09.89,5.29,2.36.74.91.66,2.12.75,3.23.13,1.6.36,3.2.7,4.77.62,2.92,1.67,5.75,3,8.42s3.19,5.38,5.28,7.68c2.26,2.48,4.92,3.48,8.19,3.9s6.33.74,9.32-.44c2.79-1.1,5.15-3.04,7.01-5.38,7.81-9.83,6.68-23.7-.75-33.38-1.75-2.28-3.74-4.3-6.02-6.06l-1.77,4.27c6.15.45,12.64-.24,18.07-3.36,4.68-2.69,8.48-7.23,9.54-12.6.26-1.32-.38-2.7-1.75-3.08-1.23-.34-2.81.42-3.08,1.75Z"/><g class="p"><path class="m" d="m350.89,118.1c-.03,5.45-1.88,10.9-5.5,14.96-1.78,2-4.03,3.69-6.64,4.28-2.06.46-4.2.22-6.29-.03-1.69-.19-3.42-.41-4.89-1.24-1.03-.58-1.86-1.43-2.64-2.32-4.67-5.3-7.53-12.17-8.01-19.22-.07-1.06-.1-2.15-.51-3.13-.93-2.21-3.31-3.27-5.37-3.92-6.35-2.01-20.29-2.87-31.89-5.71.05-4.94,2.53-9.76,5.04-10.38,2.79-.7,6.91,3.49,10.69,3.36.29-.01,1.3-.1,2.48.32.93.33,1.68,1.03,2.54,1.51,2.52,1.4,5.86.91,8.19,2.61.9.66,1.57,1.6,2.36,2.39,1.99,1.96,4.78,2.97,6.69,5,2.79,2.94,3.37,7.65,6.6,10.1,1.89,1.44,4.35,1.83,6.71,2.17,4.97.73,10.13,1.44,14.94.02,1.8-.54,3.8-1.35,5.5-.77Z"/><path class="l" d="m348.39,118.1c-.08,6.11-2.74,13.22-8.48,16.18-1.35.69-2.8.85-4.3.81-1.79-.05-3.7-.21-5.43-.67-2.99-.78-5.03-4.12-6.52-6.62-1.68-2.8-2.88-5.82-3.61-9-.79-3.47-.18-7.48-2.6-10.36-1.77-2.11-4.59-3.11-7.19-3.77s-5.27-1.07-7.92-1.47c-7.53-1.14-15.11-2.04-22.53-3.84l1.84,2.41c.06-2.54.7-5.66,2.57-7.53.26-.26.26-.26.13-.16.02-.01.74-.43.28-.22.49-.23-.29-.06.28-.05.51,0,.22.02.11,0,1.14.2,2.13.82,3.19,1.36,1.22.62,2.46,1.24,3.77,1.64,1.16.36,2.3.38,3.5.42,1.39.05,2.3,1.08,3.49,1.67,1.4.7,2.9.99,4.43,1.27,1.09.2,2.32.37,3.25,1.03.61.44,1.09,1.12,1.6,1.67.65.71,1.38,1.31,2.15,1.88,2.15,1.59,4.59,2.65,6.03,5.02,1.33,2.2,2.14,4.66,3.7,6.72,2.01,2.65,4.86,3.95,8.08,4.51,3.65.64,7.43,1.19,11.14,1.17,1.95-.01,3.93-.21,5.83-.67,1.56-.38,3.44-1.45,5.05-1.01,3.11.86,4.43-3.96,1.33-4.82-3.59-.99-7.05,1.21-10.62,1.44s-7.11-.27-10.61-.81c-2.7-.42-5.14-1.03-6.66-3.46s-2.41-5.26-4.3-7.53c-2.07-2.48-5.24-3.52-7.44-5.82-1.1-1.15-2.07-2.32-3.53-3.04s-3.02-.97-4.6-1.28c-.73-.14-1.51-.27-2.2-.56s-1.23-.75-1.85-1.14c-1.46-.91-3.02-1.23-4.72-1.25-2.36-.02-4.51-1.61-6.69-2.55-2.97-1.28-5.86-1.11-8.06,1.46-2.48,2.9-3.53,6.87-3.63,10.61-.03,1.06.79,2.16,1.84,2.41,7.05,1.71,14.25,2.62,21.41,3.67,2.85.42,5.71.84,8.52,1.5,1.99.47,5.14,1.1,5.8,3.35.25.84.19,1.78.28,2.65.09.98.22,1.96.39,2.93.3,1.78.74,3.53,1.33,5.23,1.2,3.48,2.9,6.79,5.12,9.73,1.12,1.48,2.29,2.98,3.76,4.13s3.31,1.86,5.23,2.16c4,.62,8,1.02,11.77-.75,7.52-3.55,11.2-12.83,11.31-20.68.04-3.22-4.96-3.22-5,0Z"/></g><path class="i" d="m362.2,81.44c-.85,4.3-3.78,7.7-7.57,9.79-4.61,2.54-10.08,2.87-15.22,2.5-2.03-.15-3.48,2.94-1.77,4.27,8.45,6.53,13.29,17.41,9.29,27.83-1.71,4.45-5.49,9.23-10.64,9.28-1.42.01-2.85-.15-4.26-.34-1.21-.16-2.51-.36-3.54-1.05-2.03-1.36-3.6-3.86-4.83-5.91-1.39-2.32-2.46-4.79-3.2-7.39-.36-1.27-.64-2.55-.84-3.86-.22-1.49-.2-3.01-.46-4.5-.88-5.11-6.27-6.86-10.69-7.79-10.36-2.17-21-2.68-31.23-5.57-4.44-1.25-9.26-2.9-12.4-6.46-1.77-2.01-2.91-5.58-3.25-8.36-.47-3.83-.18-7.67.57-11.25s1.84-6.97,3.55-10.06c.35-.63.72-1.25,1.12-1.85.21-.31.43-.62.66-.92-.29.38,0,0,.08-.09.16-.18.32-.37.48-.55.4-.43.82-.83,1.27-1.21-.51.42.24-.15.37-.23.15-.1.91-.48.59-.34-.36.16.33-.09.45-.14.64-.28-.59.14.04,0,.1-.02.23.02.34.02.33,0-.66-.15-.13-.02.3.08.6.12.9.2,1.87.48,3.68,1.2,5.47,1.89,5.09,1.95,10.2,3.9,15.11,6.26,5.7,2.74,11.49,5.48,17.41,7.7,3.02,1.13,6.02,1.47,9.21.96,2.8-.45,6.18-1.13,8.39-3,2.02-1.71,3.1-4.38,4.71-6.45s3.53-3.9,5.86-5.13c4.39-2.33,9.95-1.79,13.97,1.04,2.01,1.42,3.64,3.4,5.03,5.4,1.61,2.33,3.14,4.82,4.12,7.48.92,2.5,1.49,5.2,1.04,7.86-.22,1.33.35,2.69,1.75,3.08,1.2.33,2.85-.41,3.08-1.75,1.12-6.64-1.48-12.9-5.09-18.36-3.25-4.91-7.45-9.3-13.37-10.69s-12.18.24-16.85,4.29c-2.2,1.91-4,4.28-5.56,6.72-.6.94-1.12,2.09-2.01,2.81-1.11.91-2.96,1.11-4.31,1.44-1.46.35-2.91.61-4.42.53-1.59-.09-3.15-.65-4.63-1.22-3.15-1.23-6.25-2.63-9.34-4.01-5.5-2.46-10.89-5.09-16.49-7.33-2.74-1.1-5.48-2.19-8.25-3.2-1.53-.56-3.09-1.14-4.71-1.39-3.17-.49-5.91,1.39-7.88,3.73-5.13,6.09-7.38,14.79-7.69,22.61-.16,3.98.26,8.16,1.78,11.87,1.79,4.38,4.93,7.55,9.14,9.71,5.27,2.69,11.16,4.07,16.95,5.16s11.51,1.8,17.27,2.68c2.29.35,4.59.72,6.85,1.26,1.75.42,4.09.89,5.29,2.36.74.91.66,2.12.75,3.23.13,1.6.36,3.2.7,4.77.62,2.92,1.67,5.75,3,8.42s3.19,5.38,5.28,7.68c2.26,2.48,4.92,3.48,8.19,3.9s6.33.74,9.32-.44c2.79-1.1,5.15-3.04,7.01-5.38,7.81-9.83,6.68-23.7-.75-33.38-1.75-2.28-3.74-4.3-6.02-6.06l-1.77,4.27c6.15.45,12.64-.24,18.07-3.36,4.68-2.69,8.48-7.23,9.54-12.6.26-1.32-.38-2.7-1.75-3.08-1.23-.34-2.81.42-3.08,1.75Z"/><path class="g" d="m267.47,46.21c4.84-.17,9.48,6.09,18.76,18.61.51.69,1.47,1.97,2.12,3.87,1.01,3,.66,6.26.3,9.41-.82,7.04-1.99,14.78-7.37,19.4-1.85,1.59-4.29,3-4.63,5.41-.27,1.89.92,3.65,1.58,5.44.63,1.71.8,3.58.49,5.37-.2,1.13-.6,2.25-1.38,3.09-2.08,2.21-6.18,1.28-7.76-1.31-1.57-2.59-.98-6.06.69-8.6-1.81-1.16-4.24-1.01-6.14-.01-1.9,1-3.32,2.73-4.38,4.6-2.12,3.72-2.84,8.76-.12,12.06.53.64,1.16,1.19,1.62,1.87.5.74.78,1.6,1.09,2.44,1.25,3.43,3.04,6.69,3.76,10.26.72,3.58.15,7.73-2.64,10.09-3.56,3.03-9.58,1.62-12.24-2.21s-2.34-9.2-.13-13.31c1.07-2,2.54-3.78,3.41-5.87.87-2.09,1.03-4.71-.43-6.45-1.2-1.44-3.2-1.94-5.07-2.02-2.87-.13-6.21.9-7.17,3.61-.7,1.98.12,4.13.6,6.17.48,2.04.41,4.61-1.37,5.73-.75.47-1.66.58-2.54.57-3.79-.06-7.67-2.77-8.09-6.53-.12-1.09.04-2.2-.2-3.27-.66-2.92-3.94-4.38-6.87-4.96-2.94-.58-4.82-1.26-6.97-3.34,6.87-1.98,14.74-5.51,20.55-14.16,2.37-3.53,3.34-6.62,3.89-8.29,4.45-13.67,15.39-47.26,26.65-47.66Z"/><path class="n" d="m267.47,48.08c.15,0,.31,0,.46,0,.41,0,.16,0,.2.01.37.07.73.17,1.09.3.07.03-.12-.07.18.08.19.09.37.19.56.29.39.22.77.47,1.14.74,1.57,1.16,3.24,3.03,4.62,4.66,2.19,2.58,4.21,5.29,6.23,8s4.64,5.55,5.1,9.15-.27,7.58-.86,11.16c-.54,3.27-1.29,6.6-2.9,9.53-.75,1.36-1.65,2.59-2.78,3.66s-2.56,1.97-3.68,3.14c-1.19,1.23-2.04,2.76-2.09,4.5-.06,1.95.92,3.59,1.6,5.34.97,2.47,1.2,8.53-3.02,7.39-3.76-1.02-3.05-5.65-1.44-8.2.54-.86.18-2.06-.67-2.57-5.38-3.17-11.02,1.11-13.44,5.91s-2.61,10.25,1.07,14.3c1.04,1.14,1.45,2.3,2,3.72.61,1.56,1.3,3.09,1.93,4.65,1.02,2.54,1.89,5.17,1.7,7.95-.14,2.14-1.05,4.45-3.02,5.52-1.76.96-3.96.8-5.75,0-4.74-2.12-5.3-8-3.62-12.35,1-2.58,2.94-4.67,4.04-7.2s1.4-5.53-.1-7.89c-2.69-4.24-9.89-4.4-13.65-1.58-2.34,1.75-2.97,4.42-2.48,7.21.27,1.58,2.01,5.42.23,6.73-.9.65-2.52.29-3.49,0-1.13-.34-2.16-.97-2.98-1.81-2.16-2.22-.85-5.38-2.25-7.95-1.3-2.39-4.02-3.73-6.55-4.39-1.28-.34-2.59-.52-3.84-.96s-2.33-1.21-3.29-2.12l-.83,3.13c6.83-1.98,13.25-5.25,18.14-10.53,2.86-3.09,5.13-6.66,6.68-10.58.89-2.25,1.56-4.58,2.31-6.87,3.76-11.34,7.7-23.04,14.01-33.27,1.42-2.3,2.99-4.55,4.97-6.42.83-.78,1.33-1.19,2.35-1.74.59-.32.37-.24,1.05-.44.21-.06.42-.11.63-.16.35-.08.05-.02-.02,0,.16-.02.32-.03.48-.04,2.4-.12,2.42-3.87,0-3.75-4.56.22-7.93,3.94-10.47,7.36-3.52,4.75-6.11,10.21-8.45,15.61-2.51,5.79-4.7,11.71-6.75,17.68-1.85,5.4-3.17,11.21-6.35,16.03-4.61,6.99-11.66,11.21-19.57,13.5-1.32.38-1.87,2.15-.83,3.13,1.92,1.81,4.09,2.97,6.65,3.58,2.05.49,4.52.8,5.99,2.5.83.95.76,2.03.8,3.23.04,1.41.3,2.7.93,3.97,1.11,2.23,3.25,3.83,5.53,4.7s5.24,1.12,7.3-.34c2.19-1.55,2.5-4.38,2.12-6.83-.34-2.18-2.06-5.39.12-7.11,1.64-1.3,4.31-1.39,6.24-.86,2.76.76,2.95,3.45,1.96,5.77-1.11,2.59-3.05,4.71-4.1,7.35-1.94,4.85-1.62,11.16,2.33,14.96,3.29,3.17,8.84,4.33,12.81,1.75,4.61-2.99,5.16-9.15,3.82-14.02-.92-3.36-2.51-6.54-3.75-9.78-.65-1.69-1.63-2.76-2.75-4.14-.79-.97-1.23-2.18-1.33-3.43-.22-2.8.84-5.64,2.47-7.88s4.44-4.11,7.09-2.55l-.67-2.57c-2.13,3.37-2.76,8.12-.05,11.37,2.13,2.55,6.28,3.51,9.12,1.59,3.7-2.5,3.54-8.17,2.01-11.83-.68-1.64-1.91-3.5-.65-5.16,1.09-1.44,2.79-2.36,4.09-3.6,5.81-5.51,6.78-14.27,7.54-21.81.44-4.37.05-8.62-2.58-12.28s-5.09-6.9-7.75-10.26c-3.07-3.88-7.31-9.76-12.9-9.64-2.41.05-2.42,3.8,0,3.75Z"/><path class="d" d="m161.26,105.89c-.03-.12-.05-.24-.06-.36-4.87,4.34-6.16,11.45-5.99,17.97s1.49,13.06.61,19.53c-1.75,12.87-12.21,23.28-24.2,28.27-11.99,5-25.36,5.43-38.34,5.01-2.13-.28-4.09-.7-5.88-1.25-.06-.01-.11-.02-.16-.04-18.68-5.77-19.86-25.29-15.49-41.69,2.96-11.13,8.48-20.83,12.82-23.8,12-8.23,10.43-27.06,13.13-41.35.59-3.11,1.18-6.22,1.77-9.34,1.41-7.45,2.83-14.95,5.66-21.99.8-2,1.74-3.98,3.07-5.69,1.09-1.38,2.42-2.55,3.81-3.63,9.51-7.46,21.53-11.14,33.54-12.54,12.01-1.39,24.14-.65,36.22-.11,4.08.19,8.26.34,12.16-.89,4.54-1.42,8.29-4.57,12.37-7.01,4.07-2.44,9.06-4.23,13.53-2.61,3.04,1.11,5.31,3.61,7.82,5.65,7.59,6.17,17.83,8.39,25.32,14.68,10.34,8.67,13.31,23.03,14.85,36.57.08.75.16,1.49.24,2.23.47,4.62.89,9.28.58,13.93-1.44,21.76-21.07,40.79-42.87,41.55-2.63.1-5.5-.13-7.46-1.89-1.59-1.42-2.28-3.58-3.57-5.27-3.59-4.7-10.76-4.64-16.38-2.79s-10.96,5.05-16.87,5.19c-1.06.03-2.17-.06-3.08-.6-2.76-1.63-3.47-6.9-6.59-6.2-1.03.23-1.75,1.13-2.61,1.74-2.47,1.75-6.31.42-7.6-2.2-.16-.34-.28-.69-.35-1.07"/><path class="h" d="m164.88,104.89l-.06-.36c-.49-2.96-4.38-3.38-6.27-1.65-4.23,3.87-6.13,9.35-6.82,14.91-.73,5.89.27,11.76.57,17.64.07,1.43.1,2.85.05,4.28-.03.79-.09,1.58-.16,2.37-.04.41-.12.97-.28,1.75-.22,1.07-.49,2.12-.83,3.16-.19.57-.4,1.14-.61,1.7-.25.69-.1.26-.03.11-.16.39-.34.77-.52,1.15-2.17,4.52-4.61,7.54-8.4,10.89-.97.86-1.77,1.49-2.42,1.97-1,.73-2.03,1.42-3.09,2.06s-2.14,1.25-3.24,1.8c-.5.25-.99.49-1.5.72-.28.13-.56.25-.84.38.65-.28-.63.26-.62.25-5.43,2.16-11.47,3.48-16.96,4.06-5.96.63-11.97.68-17.95.52-2.29-.06-5.02-.64-7.48-1.48-.49-.17-.98-.35-1.46-.54.66.26-.03-.01-.19-.09-.25-.11-.5-.23-.75-.35-.95-.47-1.87-.99-2.75-1.58-.26-.17-.5-.35-.76-.53-.13-.09-.56-.44.03.04-.39-.31-.77-.63-1.14-.96-.72-.65-1.4-1.35-2.02-2.09-.02-.02-.61-.75-.25-.29s-.21-.28-.22-.31c-.28-.39-.54-.78-.8-1.18-.51-.81-.96-1.64-1.37-2.5-.1-.22-.19-.44-.3-.65-.26-.52.31.84,0-.03-.15-.41-.31-.81-.44-1.22-.33-.97-.6-1.95-.83-2.95-.11-.48-.21-.96-.29-1.45-.04-.24-.23-1.41-.17-.97.09.61-.04-.36-.05-.39-.02-.2-.04-.4-.06-.6-.06-.6-.1-1.21-.13-1.82-.11-2.06-.06-4.13.1-6.18.07-.94.17-1.88.29-2.81-.12.93.1-.63.14-.88.09-.57.19-1.14.3-1.71.43-2.27.99-4.52,1.65-6.74.76-2.56,1.81-5.47,2.74-7.57,1.05-2.37,2.24-4.69,3.61-6.89.59-.94,1.21-1.86,1.88-2.74-.49.65.28-.33.44-.51.33-.37.66-.74,1.02-1.09.29-.29.6-.54.9-.82.51-.46-.22.2-.23.18-.01-.05.5-.35.57-.4,1.07-.78,2.12-1.6,3.05-2.54,1.61-1.61,3.01-3.49,4.12-5.48,4.6-8.23,5.16-18.06,6.16-27.22.13-1.15.26-2.29.4-3.44.03-.23.06-.45.09-.68.14-1.12-.12.76.05-.35.08-.55.16-1.11.25-1.66.46-2.84,1.04-5.66,1.58-8.48,1.16-6.1,2.22-12.24,3.95-18.22.39-1.34.8-2.66,1.26-3.97.54-1.55,1.01-2.79,1.64-4.08,1.27-2.59,2.77-4.24,5.08-6.05,3.84-3.01,9.17-5.82,13.75-7.5,11.56-4.24,23.13-5.02,35.4-4.86,6.43.08,12.85.45,19.27.72,3.22.13,6.42.09,9.61-.48,2.91-.53,5.69-1.74,8.23-3.22,4.76-2.76,8.99-6.76,14.39-7.45-.54.07.32,0,.44-.01.34-.02.68-.02,1.02,0,.27.01.55.02.82.06-.66-.1.65.18.62.17.27.07.54.15.79.25-.44-.16.16.07.21.1.71.37,1.39.79,2.04,1.26.56.4,1.67,1.4,2.52,2.14,1.2,1.05,2.45,2.06,3.75,2.99,4.33,3.09,9.27,5.15,14.02,7.48,2.4,1.18,4.77,2.44,6.99,3.94,1.82,1.23,3.48,2.68,5.17,4.58.41.46.8.93,1.18,1.41-.37-.47.11.15.19.27.18.25.36.5.53.75.7,1.01,1.34,2.06,1.93,3.14s1.13,2.2,1.64,3.33c.04.08.28.66.06.14.12.29.24.58.35.87.25.64.49,1.29.72,1.95,1.68,4.85,2.69,9.9,3.43,14.97.04.25.07.51.11.76.17,1.23-.05-.39.05.34.07.57.15,1.14.21,1.72.19,1.6.36,3.2.52,4.81.3,3.11.55,6.24.54,9.37,0,1.4-.06,2.79-.19,4.18-.03.29-.06.58-.09.88-.02.18-.14.95-.03.22-.1.64-.2,1.27-.33,1.9-.44,2.24-1.07,4.43-1.87,6.57-.12.33-.25.65-.38.98-.04.11-.28.66-.03.07-.23.54-.47,1.07-.73,1.6-.51,1.06-1.05,2.09-1.64,3.1s-1.21,2.01-1.87,2.98c-.3.44-.6.87-.92,1.29-.17.24-.35.47-.53.71.43-.57-.26.32-.28.35-1.48,1.83-3.09,3.55-4.82,5.14-.82.76-1.67,1.49-2.54,2.18-.12.1-.73.56-.21.17-.19.14-.38.28-.56.42-.57.42-1.14.82-1.73,1.22-1.95,1.3-3.99,2.47-6.11,3.46-.21.1-.42.2-.64.29.05-.02-1,.43-.52.23s-.58.23-.53.21c-.22.09-.44.17-.65.25-1.15.43-2.31.81-3.49,1.15-1.07.3-2.15.56-3.24.77-.57.11-1.15.21-1.73.3-.75.12-.2.03-.05.01-.41.05-.82.1-1.22.13-1.14.11-2.28.18-3.43.17-.25,0-.51,0-.77-.02-.03,0-1.27-.11-.52-.01-.61-.08-1.23-.23-1.82-.45.65.24-1.03-.73-.57-.33.07.06-.77-.8-.47-.44s-.4-.6-.36-.53c-.68-1.06-1.22-2.2-1.94-3.24-1.67-2.41-3.92-4.06-6.64-5.1-4.73-1.8-10.35-1.08-15.01.56-2.74.97-5.38,2.19-8.12,3.18s-5.01,1.67-7.54,1.59c-.16,0-.95-.16-.39-.03-1.01-.22-.26-.05-.2-.06l-.22-.14c.41.33.46.35.15.08-.11-.13-.25-.27-.37-.4-.58-.6.19.45,0-.02-.09-.2-.28-.41-.4-.59-.28-.44-.54-.89-.82-1.33-1.4-2.23-3.11-4.1-5.88-4.35-1.43-.13-2.89.35-4.05,1.16-.34.24-.7.53-1.04.81-.04.03-.96.73-.34.31-.18.12-.36.23-.55.33.66-.34.09-.07-.14-.02-.62.14.9-.24-.09-.03-.21.04-.66-.16.05.04-.26-.07-.52-.13-.77-.21-.51-.16.63.46-.13-.08-.17-.12-.37-.22-.54-.34.67.49-.09-.16-.18-.26.23.25.13.44.04,0-.21-.98.15.71-.12-.45-.46-1.97-2.72-3.14-4.61-2.62-2.02.56-3.08,2.63-2.62,4.61.73,3.14,3.3,5.5,6.33,6.43,3.28,1.01,6.2-.07,8.72-2.17.08-.07.55-.46.08-.06.5-.41-.02,0-.46.03.31-.03.54.18-.34-.05l-.5-.22c.26.16.25.14-.01-.05l-.2-.16c.12.1.23.21.34.32l.16.18c-.3-.4-.36-.49-.2-.26.24.43.56.84.82,1.26,1.43,2.32,3.01,4.58,5.75,5.43,3.1.96,6.8.24,9.83-.64,2.79-.81,5.44-2,8.13-3.07,1.29-.51,2.59-1.01,3.92-1.41.56-.17,1.12-.31,1.69-.44.34-.08.69-.14,1.04-.21.17-.03,1.18-.14.4-.07,1.16-.11,2.32-.17,3.49-.08.23.02.46.04.68.06-.86-.1.23.06.34.08.6.13,1.18.3,1.76.5s-.73-.42.16.07c.24.13.48.25.71.39s.46.29.68.45c-.58-.42,0,0,.12.14.19.2.39.39.58.59.71.74-.19-.32.17.22.39.58.72,1.18,1.07,1.78,1.64,2.9,3.73,5.16,6.99,6.16,2.61.81,5.48.72,8.17.46s5.2-.67,7.73-1.35c9.76-2.61,18.73-8.51,25.19-16.25s10.93-17.8,11.46-28.28c.32-6.28-.46-12.65-1.28-18.87-.72-5.42-1.64-10.83-3.3-16.06s-3.81-9.93-7.02-14.15c-3.58-4.7-8.13-8.22-13.34-10.97-4.87-2.57-10.04-4.58-14.69-7.55-2.32-1.48-3.9-3.05-6.21-4.92-2.64-2.13-5.35-3.65-8.76-4.08-6.41-.81-12.21,2.75-17.32,6.13-1.11.74-2.22,1.47-3.37,2.14-1.23.72-2.4,1.34-3.42,1.71-2.99,1.08-5.58,1.2-8.77,1.14-13.38-.25-26.69-1.58-40.04.07-11.95,1.47-24,4.94-33.78,12.2-2.76,2.05-5.33,4.22-7.16,7.17-1.69,2.72-2.81,5.84-3.81,8.87-2.03,6.11-3.2,12.45-4.4,18.76-1.06,5.61-2.17,11.19-2.84,16.86-.29,2.44-.53,4.88-.81,7.31-.07.58-.13,1.17-.21,1.75-.03.23-.06.47-.09.7-.01.08-.16,1.24-.05.4-.16,1.21-.35,2.41-.56,3.61-.4,2.27-.89,4.53-1.58,6.73-.32,1.03-.68,2.06-1.1,3.05.3-.71.01-.05-.07.13-.12.24-.22.48-.34.71-.28.56-.58,1.12-.9,1.66-.26.45-.54.88-.84,1.31-.12.17-.24.34-.36.51-.58.83.5-.54-.18.22-.73.82-1.46,1.62-2.3,2.34-.2.17-.4.34-.61.51.56-.44.1-.09-.01,0-.53.36-1.05.75-1.55,1.16-.72.59-1.39,1.24-2,1.94-3.55,4.04-6.02,8.9-8.08,13.83s-3.62,10.14-4.51,15.44c-1.47,8.81-1.4,18.12,2.57,26.3,4.4,9.05,14.06,14.49,23.91,15.28,3.15.25,6.39.15,9.55.1s6.07-.19,9.09-.48c6.47-.62,12.92-1.79,19.02-4.09,10.04-3.8,19.23-10.58,24.53-20.08,2.84-5.08,4.29-10.7,4.4-16.51.11-6.32-1.23-12.6-.85-18.92.13-2.11.47-4.32,1.38-6.81.63-1.73,1.83-3.6,3.45-5.09l-6.27-1.65.06.36c.33,2,2.81,3.12,4.61,2.62,2.12-.58,2.95-2.61,2.62-4.61h0Z"/><path class="k" d="m162.04,104.97c2.93-2.98,5.94-5.89,8.78-8.95,2.68-2.89,4.68-6.11,5.52-10,1.48-6.89,1.52-15.51-3.53-21-2.18-2.37-5.71,1.17-3.54,3.54,1.86,2.03,2.6,4.8,2.79,7.49.22,3.14.04,6.45-.75,9.51s-2.66,5.54-4.9,7.85c-2.61,2.7-5.27,5.36-7.91,8.04-2.26,2.3,1.27,5.83,3.54,3.54h0Z"/><path class="k" d="m160.16,106.46c4.17.85,7.78-1.21,11.83-1.65,2.16-.24,4.22-.54,6.1-1.73,1.7-1.07,3.17-2.53,4.61-3.91,2.92-2.8,5.95-5.95,7.56-9.72,1.69-3.97.49-8.35,2.01-12.36.48-1.26-.53-2.74-1.75-3.08-1.4-.39-2.6.48-3.08,1.75-.67,1.76-.93,3.64-1.04,5.52-.1,1.78.1,3.61-.41,5.34-.96,3.29-3.8,6.05-6.17,8.38-1.19,1.17-2.4,2.43-3.74,3.42s-2.7,1.24-4.31,1.42c-1.86.2-3.61.59-5.4,1.11-1.57.46-3.25,1.03-4.89.7-1.32-.27-2.7.38-3.08,1.75-.34,1.24.42,2.8,1.75,3.08h0Z"/><path class="k" d="m174.43,107.57c7.67.91,14.69-3.35,20.84-7.38,1.13-.74,1.6-2.21.9-3.42-.66-1.12-2.29-1.64-3.42-.9-5.47,3.58-11.51,7.5-18.31,6.7-1.34-.16-2.5,1.26-2.5,2.5,0,1.48,1.15,2.34,2.5,2.5h0Z"/><path class="h" d="m107.89,34.4c3.61-1.47,6.82-3.66,10.21-5.56,2.92-1.64,5.95-3.01,9.36-2.48,2.14.34,4.23.94,6.38,1.21s4.18.17,6.26.39c4.15.43,6.75,3.11,9.43,6.06,1.82,2,5.51-1.29,3.56-3.45-2.96-3.26-6.1-6.19-10.62-6.9-2.21-.35-4.46-.21-6.67-.45s-4.55-.91-6.84-1.27c-8.6-1.35-14.65,5.23-22.02,8.23-1.12.46-2.19,1.53-1.87,2.86.28,1.19,1.74,1.8,2.84,1.35h0Z"/><path class="h" d="m130.22,20.61c3.55-2.03,7.29-.84,10.79.68,1.75.76,3.48,1.56,5.07,2.62.82.55,1.51,1.25,2.31,1.83.97.7,1.96,1.01,3.14,1.14,1.34.15,2.5-1.26,2.5-2.5,0-1.48-1.15-2.35-2.5-2.5-.42-.05-1.17-.96-1.5-1.22-.91-.73-1.86-1.39-2.88-1.96-1.94-1.08-4.02-1.95-6.09-2.76-4.43-1.74-9.11-2.07-13.36.35-2.79,1.6-.28,5.92,2.52,4.32h0Z"/><path class="f" d="m267.71,74.36c-1.44,21.76-21.07,40.79-42.87,41.55-2.63.1-5.5-.13-7.46-1.89-1.59-1.42-2.28-3.58-3.57-5.27-3.59-4.7-10.76-4.64-16.38-2.79-5.62,1.85-10.96,5.05-16.87,5.19-1.06.03-2.17-.06-3.08-.6-2.76-1.63-3.47-6.9-6.59-6.2-1.03.23-1.75,1.13-2.61,1.74-2.47,1.75-6.31.42-7.6-2.2-.16-.34-.28-.69-.35-1.07-.03-.12-.05-.24-.06-.36-4.87,4.34-6.16,11.45-5.99,17.97.17,6.52,1.49,13.06.61,19.53-1.75,12.87-12.21,23.28-24.2,28.27-11.99,5-25.36,5.43-38.34,5.01-2.13-.28-4.09-.7-5.88-1.25.01-.09.02-.17.04-.26,2.23-14.71,10.96-29.75,18.75-30.84,1.18-.17,2.29,0,3.47.34,3.52,1.01,7.64,3.57,16.05,3.48,9.71-.11,12.52-3.58,13.04-4.39,1.21-1.91,1.45-4.27,1.65-6.53.75-8.3,1.5-16.6,2.25-24.9.24-2.72.49-5.45,1.13-8.11.95-3.94,2.75-7.62,4.54-11.26,3.27-6.67,6.57-13.37,10.99-19.34,6.43-8.66,3.21-6.38,9.3-17.48.71-1.3,12.88,17.92,7.35,39.4-2.67,10.4,16.03-42.72,16.93-39.91,1.92,6.05,3.35,15.74,4.41,22,.56,3.27,2.2,6.98,3.83,9.87,4.06,7.2,13.56,8.87,21.82,9.29,4.25.21,8.5.3,12.75.27,2.78-.02,5.69-.13,8.11-1.49,4.22-2.37,5.69-7.69,8.98-11.23,2.67-2.86,3.61-2.93,5.44-4.79,7.96-8.09,4.61-21.92,5.96-22.2.48-.1,1.83,1.45,3.63,4.29.08.75.16,1.49.24,2.23.47,4.62.89,9.28.58,13.93Z"/><path class="e" d="m265.21,74.36c-1.24,17.51-14.94,33.06-31.68,37.69-2.04.56-4.12.99-6.23,1.2s-4.59.47-6.69-.23-2.89-2.8-4.01-4.6c-1.25-1.99-2.96-3.65-5.11-4.65-4.28-1.98-9.28-1.79-13.74-.52-5.19,1.46-9.92,4.43-15.3,5.25-1.13.17-2.66.42-3.71-.1-.49-.24-.94-.95-1.37-1.63-1.17-1.84-2.26-3.99-4.47-4.73-1.25-.42-2.59-.25-3.76.33-.96.48-1.73,1.51-2.65,1.88-1.65.66-3.51-.66-3.8-2.45-.33-1.97-2.92-2.25-4.18-1.1-5.75,5.26-7.02,13.51-6.68,20.93.38,8.34,2.08,16.68-1.22,24.67-2.57,6.23-7.38,11.5-12.89,15.27-6.57,4.5-14.19,6.95-22,8.2-4.79.76-9.65,1.03-14.49,1.08-2.43.03-4.86,0-7.28-.06s-4.57-.54-6.8-1.21l1.75,3.08c1.29-8.36,4.25-16.97,9.46-23.74,1.03-1.34,2.21-2.61,3.51-3.68.35-.29.96-.71,1.52-1.04.29-.17.59-.33.9-.47-.35.16.53-.18.64-.21,2.63-.75,5.64,1.05,8.1,1.88,3.78,1.28,7.77,1.85,11.76,1.81s7.77-.55,11.23-2.27c1.55-.77,2.98-1.87,3.94-3.31,1.32-1.97,1.68-4.46,1.92-6.77.27-2.55.47-5.1.7-7.66.48-5.29.96-10.58,1.43-15.87s.95-10.13,2.95-14.98c1.87-4.54,4.2-8.95,6.48-13.3s4.73-8.36,7.58-12.26c1.53-2.09,3.03-4.21,4.06-6.6.42-.97.79-1.95,1.18-2.92.1-.25.2-.5.31-.75-.2.48.17-.38.21-.48.32-.71.65-1.42.99-2.12.45-.92.93-1.84,1.41-2.74.14-.26.31-.53.43-.8.58-1.28.43.73-1.82.76-.38,0-.79-.11-1.12-.29.14.08.17-.01-.12-.1-.37-.11-.17-.18-.04,0,.07.09.16.19.25.27.4.39-.25-.39-.04-.05.11.17.24.34.36.51.57.84,1.07,1.73,1.53,2.63.57,1.1,1.17,2.4,1.51,3.25,2.86,7.04,4.24,14.68,3.76,22.28-.19,3.01-.94,5.83-1.47,8.77-.13.72-.21,1.32.09,2.02.72,1.63,2.86,2.07,4.13.77.58-.59.87-1.44,1.19-2.18.61-1.44,1.19-2.9,1.77-4.36,1.54-3.94,3.04-7.89,4.55-11.84,1.68-4.38,3.35-8.76,5.09-13.12.38-.95.76-1.89,1.14-2.84.18-.44.36-.87.54-1.31.08-.18.15-.36.23-.55.04-.1.09-.2.13-.3.22-.53-.22.53,0,0,.54-1.26,1.08-2.52,1.69-3.75.19-.38.41-.75.62-1.12.26-.49-.26.29-.15.18.25-.25-.4.29-.39.29-.86.51-2.08.28-2.82-.46l-.43-.43c.06.1.02.02-.11-.26-.38-.44-.05-.11.03.18.12.43.25.86.37,1.29.27.99.52,1.99.75,2.99.47,2.05.88,4.11,1.26,6.18,1.54,8.34,2.1,17.52,7.9,24.26,5.15,5.99,13.91,7.34,21.35,7.78,5.01.3,10.1.47,15.12.28,2.46-.09,4.9-.44,7.14-1.52,1.84-.88,3.34-2.32,4.59-3.92,2.42-3.12,3.97-6.74,6.92-9.45,1.1-1.01,2.08-1.58,3.32-2.7,1.43-1.29,2.66-2.87,3.61-4.54,3.21-5.63,3.25-11.93,3.35-18.21,0-.31.11-.74.05-1.03.12.56-.13.54,0,.19-.32.92-1.41,1.83-3.17,1.21.19.07.13.25-.15-.14.07.1.21.18.29.27.23.27.47.52.69.79.6.76,1.12,1.59,1.64,2.41l-.34-1.26c.57,5.37,1.15,10.76.82,16.16-.2,3.21,4.8,3.2,5,0,.18-2.89.1-5.77-.1-8.66-.1-1.44-.24-2.88-.38-4.32s-.03-3.22-.68-4.45c-.54-1.03-1.32-2-2.03-2.92-.58-.75-1.19-1.54-2.01-2.07-1.65-1.05-3.76-.42-4.36,1.5-.63,2.03-.23,4.51-.29,6.6-.1,3.38-.45,6.58-1.83,9.77-.77,1.77-1.84,3.4-3.22,4.75-.61.59-1.09.96-1.48,1.26-.78.59-1.55,1.18-2.27,1.84-1.73,1.59-3.15,3.43-4.39,5.42-1.08,1.71-2.03,3.57-3.39,5.08-3.31,3.69-8.67,2.99-13.17,2.94-4.84-.06-9.8-.06-14.59-.84-3.79-.62-7.83-1.66-10.86-4.16-1.6-1.32-2.63-2.93-3.57-4.76-1.15-2.23-2.11-4.58-2.64-7.04-.95-4.37-1.45-8.86-2.3-13.25-.43-2.27-.91-4.53-1.48-6.77-.37-1.43-.59-3.54-2-4.36-3.31-1.93-5.08,3.57-5.98,5.66-1.87,4.34-3.58,8.75-5.29,13.15-1.85,4.79-3.68,9.6-5.52,14.39-.71,1.85-1.43,3.71-2.16,5.55-.27.69-.55,1.37-.83,2.05-.24.59.18-.4.04-.1-.05.11-.09.22-.14.32-.09.2-.17.4-.27.6-.06.13-.15.27-.2.41-.01.04-.07.08-.07.12.06-.76,2.67-1.06,2.71-1.05l1.1.64c.15.12,1.1,1.88.64,2.19.04-.03.06-.35.08-.4.3-1.23.6-2.46.83-3.71.82-4.4,1.06-8.89.68-13.35-.58-6.97-2.41-13.86-5.52-20.14-.84-1.69-1.77-3.47-3.05-4.87-.63-.69-1.42-1.25-2.4-1.26-2.04-.02-2.77,2.13-3.55,3.63-1.29,2.48-2.39,5.03-3.41,7.62-.07.17-.14.34-.2.51-.22.57.22-.43-.05.12-.2.4-.38.81-.59,1.21-.59,1.11-1.29,2.17-2.01,3.2-2.62,3.78-5.26,7.45-7.49,11.48s-4.45,8.52-6.51,12.86c-2.27,4.77-3.84,9.48-4.45,14.74s-.96,10.38-1.43,15.57c-.24,2.6-.47,5.21-.71,7.81-.21,2.32-.29,4.69-.68,6.98-.16.96-.38,1.95-.86,2.8.13-.24-.3.45-.31.5,0,.06.49-.52.13-.17-.2.19-.39.4-.58.59-.13.13-.64.47-.05.06-.21.14-.41.29-.63.43-.43.27-.88.5-1.35.72-.07.03-.43.17-.06.02-.16.06-.32.12-.47.18-.34.12-.69.23-1.04.34-1.75.51-3.55.74-5.37.83-3.94.18-7.78-.27-11.52-1.5-3.03-1-6.06-2.64-9.36-2.28s-5.93,2.22-8.17,4.42c-5.9,5.79-9.53,14.11-11.66,21.97-.58,2.15-1.03,4.34-1.37,6.54-.21,1.36.33,2.65,1.75,3.08,2.11.63,4.34,1.16,6.54,1.34s4.41.12,6.59.12c4.47,0,8.95-.15,13.4-.64,8.54-.94,17.06-3,24.59-7.27,6.44-3.65,12.16-8.84,15.98-15.2,1.9-3.17,3.35-6.69,4.08-10.32.91-4.51.75-9.09.37-13.65-.67-8.14-2.06-18.39,4.67-24.55l-4.18-1.1c.91,5.44,7.93,8.07,12.22,4.72.38-.3.76-.61,1.13-.91l.3-.18c.11.02.06.03-.13.04.05-.14.39.1,0,0-.47-.13.12.22-.16-.11.1.11.24.22.34.32.52.55-.12-.2.16.18.19.25.36.52.52.79,1.11,1.75,2.14,3.66,3.98,4.75,2.56,1.52,6.07.98,8.82.36s5.5-1.75,8.17-2.84c4.32-1.77,9.08-3.71,13.84-2.71,1.94.41,3.75,1.29,4.92,2.94,1.59,2.24,2.47,4.69,4.88,6.27,4.24,2.78,10.61,1.74,15.28.78,9.37-1.93,18.04-7.02,24.66-13.87,7.66-7.93,12.63-18.26,13.41-29.29.1-1.35-1.22-2.5-2.5-2.5-1.43,0-2.4,1.15-2.5,2.5Z"/><path class="b" d="m70.88,130.5c4.86-4.54,12.27-5.63,18.71-3.94,6.43,1.69,11.99,5.82,16.62,10.59,1.14,1.17,2.27,2.46,2.64,4.05.44,1.92-.33,3.9-1.25,5.65-2.29,4.38-5.52,8.18-8.81,11.87-17.48,19.6-37.84,37.94-47.06,62.53-1.41-1.71-1.72-4.05-1.98-6.25-1.05-9.12-2.1-18.33-1.05-27.45,2.37-20.55,15.03-38.31,21.66-57.91l.51.86Z"/><path class="j" d="m72.65,132.27c6.32-5.76,15.88-4.56,22.76-.59,1.94,1.12,3.76,2.42,5.46,3.87s3.42,2.92,4.73,4.65.79,3.55-.17,5.38c-1.14,2.2-2.53,4.27-4.05,6.22-5.76,7.4-12.56,14.06-18.93,20.94s-12.39,13.64-17.95,21c-6.23,8.25-11.54,17.14-15.2,26.84l4.18-1.1c-.67-.87-.89-2.14-1.07-3.19-.27-1.56-.39-3.15-.56-4.72-.38-3.43-.73-6.86-.92-10.3-.37-6.49-.15-12.98,1.22-19.35,2.49-11.53,7.8-22.15,12.75-32.77,2.88-6.17,5.67-12.39,7.87-18.84l-4.57.6.51.86c1.64,2.77,5.96.25,4.32-2.52l-.51-.86c-1.14-1.93-3.89-1.4-4.57.6-4.03,11.82-10.11,22.79-14.92,34.29-2.35,5.61-4.4,11.37-5.69,17.32-1.44,6.65-1.79,13.41-1.43,20.19.21,3.94.62,7.86,1.06,11.77s.61,7.39,2.99,10.46c1.27,1.64,3.6.43,4.18-1.1,6.85-18.12,20-32.85,32.99-46.85,3.28-3.54,6.59-7.05,9.85-10.61,3.51-3.84,7.09-7.69,10.09-11.95s6.31-9.82,2.92-14.74c-1.39-2.01-3.28-3.73-5.11-5.33s-3.81-3.13-5.89-4.43c-9.07-5.66-21.49-6.89-29.87.74-2.38,2.17,1.16,5.7,3.54,3.54Z"/><g class="o"><path class="l" d="m71.44,130.8c-.65.24-.94.99-1.14,1.66-.59,1.91-1.17,3.82-1.76,5.73-.76,2.48-1.53,4.99-1.54,7.58-.01,2.36.6,4.67,1.21,6.95.89,3.34,1.79,6.68,2.82,9.99.8,2.56,1.72,5.18,3.58,7.11,1.55,1.61,1.17,1.38,3.19,2.34.85.41,3.58,1.21,4.51,1.35,1.39.2,2.2-.87,3.53-1.32,2.5-.84,1.98-.25,3.81-2.15,1.02-1.06,1.99-5.58,2.84-6.78,2.22-3.16,5.41-6.23,7.96-9.14s3.75-3.7,5.4-7.2c2.22-4.71,2.23-5.34,1.73-6.65-1.32-3.47-3.37-3.47-6.16-5.91-1.2-1.04-2.24-1.43-3.25-2.39-1.19-1.14-3.76-3.86-6.15-4.64-5.29-1.72-10.2-1.43-15.46-.27-2.54.56-4.03,2.09-5.84,3.97l.72-.22Z"/></g><path class="j" d="m72.65,132.1c6.32-5.76,15.88-4.56,22.76-.59,1.94,1.12,3.76,2.42,5.46,3.87s3.42,2.92,4.73,4.65.79,3.55-.17,5.38c-1.14,2.2-2.53,4.27-4.05,6.22-5.76,7.4-12.56,14.06-18.93,20.94s-12.39,13.64-17.95,21c-6.23,8.25-11.54,17.14-15.2,26.84l4.18-1.1c-.67-.87-.89-2.14-1.07-3.19-.27-1.56-.39-3.15-.56-4.72-.38-3.43-.73-6.86-.92-10.3-.37-6.49-.15-12.98,1.22-19.35,2.49-11.53,7.8-22.15,12.75-32.77,2.88-6.17,5.67-12.39,7.87-18.84l-4.57.6.51.86c1.64,2.77,5.96.25,4.32-2.52l-.51-.86c-1.14-1.93-3.89-1.4-4.57.6-4.03,11.82-10.11,22.79-14.92,34.29-2.35,5.61-4.4,11.37-5.69,17.32-1.44,6.65-1.79,13.41-1.43,20.19.21,3.94.62,7.86,1.06,11.77s.61,7.39,2.99,10.46c1.27,1.64,3.6.43,4.18-1.1,6.85-18.12,20-32.85,32.99-46.85,3.28-3.54,6.59-7.05,9.85-10.61,3.51-3.84,7.09-7.69,10.09-11.95s6.31-9.82,2.92-14.74c-1.39-2.01-3.28-3.73-5.11-5.33s-3.81-3.13-5.89-4.43c-9.07-5.66-21.49-6.89-29.87.74-2.38,2.17,1.16,5.7,3.54,3.54Z"/></svg>