
<svg xmlns="http://www.w3.org/2000/svg" version="1.1" xmlns:xlink="http://www.w3.org/1999/xlink" preserveAspectRatio="none" x="0px" y="0px" width="64px" height="64px" viewBox="0 0 64 64">
<defs>
<g id="Layer11_0_MEMBER_0_FILL">
<path fill="#808080" stroke="none" d="
M 36.3 60
L 36.25 50 33.25 50 33.3 60 36.3 60 Z"/>
</g>

<g id="Layer11_0_MEMBER_1_FILL">
<path fill="#000000" stroke="none" d="
M 36.25 60
L 36.25 50 33.25 50 33.25 60 36.25 60
M 34.25 51
L 35.25 51 35.25 59 34.25 59 34.25 51 Z"/>
</g>

<g id="Layer10_0_MEMBER_0_FILL">
<path fill="#808080" stroke="none" d="
M 32.25 41.2
L 29.25 40.85 28.1 50.75 31.1 51.1 32.25 41.2 Z"/>
</g>

<g id="Layer10_0_MEMBER_1_FILL">
<path fill="#000000" stroke="none" d="
M 32.25 41.2
L 29.25 40.85 28.1 50.75 31.1 51.1 32.25 41.2
M 30.15 41.95
L 31.15 42.05 30.2 50 29.2 49.9 30.15 41.95 Z"/>
</g>

<g id="Layer9_0_MEMBER_0_FILL">
<path fill="#808080" stroke="none" d="
M 27.9 43.75
L 29 34.05 26.05 33.75 24.9 43.4 27.9 43.75 Z"/>
</g>

<g id="Layer9_0_MEMBER_1_FILL">
<path fill="#000000" stroke="none" d="
M 29 34.05
L 26.05 33.75 24.9 43.4 27.9 43.75 29 34.05
M 26 42.55
L 26.9 34.85 27.9 34.95 27 42.65 26 42.55 Z"/>
</g>

<g id="Layer8_0_MEMBER_0_FILL">
<path fill="#808080" stroke="none" d="
M 39.3 34.75
L 37.8 24.95 34.85 25.4 36.35 35.2 39.3 34.75 Z"/>
</g>

<g id="Layer8_0_MEMBER_1_FILL">
<path fill="#000000" stroke="none" d="
M 39.3 34.75
L 37.8 24.95 34.85 25.4 36.35 35.2 39.3 34.75
M 36 26.25
L 36.95 26.1 38.2 33.95 37.2 34.1 36 26.25 Z"/>
</g>

<g id="Layer7_0_MEMBER_0_FILL">
<path fill="#999999" stroke="none" d="
M 36 43
L 36 25 29 25 29 43 36 43 Z"/>
</g>

<g id="Layer7_0_MEMBER_1_FILL">
<path fill="#000000" stroke="none" d="
M 36 43
L 36 25 29 25 29 43 36 43
M 30 26
L 35 26 35 42 30 42 30 26 Z"/>
</g>

<g id="Layer6_0_MEMBER_0_FILL">
<path fill="#91ABE2" stroke="none" d="
M 39.05 8.9
Q 36.15 6 32 6 27.85 6 24.9 8.9 22 11.85 22 16 22 20.15 24.9 23.05 27.85 26 32 26 36.15 26 39.05 23.05 42 20.15 42 16 42 11.85 39.05 8.9 Z"/>
</g>

<g id="Layer6_0_MEMBER_1_FILL">
<path fill="#000000" stroke="none" d="
M 39.05 8.9
Q 36.15 6 32 6 27.85 6 24.9 8.9 22 11.85 22 16 22 20.15 24.9 23.05 27.85 26 32 26 36.15 26 39.05 23.05 42 20.15 42 16 42 11.85 39.05 8.9
M 32 7
Q 35.7 7 38.35 9.65 41 12.25 41 16 41 19.7 38.35 22.35 35.7 25 32 25 28.25 25 25.65 22.35 23 19.7 23 16 23 12.25 25.65 9.65 28.25 7 32 7 Z"/>
</g>

<g id="Layer5_0_MEMBER_0_FILL">
<path fill="#808080" stroke="none" d="
M 40.45 41.85
L 39.1 33.15 36.1 33.6 37.45 42.3 40.45 41.85 Z"/>
</g>

<g id="Layer5_0_MEMBER_1_FILL">
<path fill="#000000" stroke="none" d="
M 40.45 41.85
L 39.1 33.15 36.1 33.6 37.45 42.3 40.45 41.85
M 37.25 34.45
L 38.25 34.3 39.3 41 38.3 41.2 37.25 34.45 Z"/>
</g>

<g id="Layer4_0_MEMBER_0_FILL">
<path fill="#808080" stroke="none" d="
M 29.1 35
L 30.25 25.3 27.25 24.95 26.1 34.65 29.1 35 Z"/>
</g>

<g id="Layer4_0_MEMBER_1_FILL">
<path fill="#000000" stroke="none" d="
M 30.25 25.3
L 27.25 24.95 26.1 34.65 29.1 35 30.25 25.3
M 27.2 33.75
L 28.15 26.05 29.1 26.2 28.2 33.9 27.2 33.75 Z"/>
</g>

<g id="Layer3_0_MEMBER_0_FILL">
<path fill="#9E005D" stroke="none" d="
M 39 17.7
Q 39 16.3 36.6 13 34.1 9.45 32.5 9.45 31.05 9.45 28.5 12.85 26 16.15 26 17.7 26 21.1 27.9 23.55 29.8 26 32.5 26 35.15 26 37.1 23.55 39 21.1 39 17.7 Z"/>
</g>

<g id="Layer3_0_MEMBER_1_FILL">
<path fill="#000000" stroke="none" d="
M 26 17.7
Q 26 21.1 27.9 23.55 29.8 26 32.5 26 35.15 26 37.1 23.55 39 21.1 39 17.7 39 16.3 36.6 13 34.1 9.45 32.5 9.45 31.05 9.45 28.5 12.85 26 16.15 26 17.7
M 27 17.7
Q 27 16.4 29.25 13.45 31.55 10.45 32.5 10.45 33.6 10.45 35.8 13.55 37.95 16.55 38 17.7 38 20.7 36.4 22.85 34.75 25 32.5 25 30.2 25 28.6 22.85 27 20.7 27 17.7 Z"/>
</g>

<g id="Layer2_0_MEMBER_0_FILL">
<path fill="#FFFFFF" stroke="none" d="
M 28 17
Q 28 17.85 28.55 18.4 29.15 19 30 19 30.85 19 31.4 18.4 32 17.85 32 17 32 16.15 31.4 15.55 30.85 15 30 15 29.15 15 28.55 15.55 28 16.15 28 17 Z"/>
</g>

<g id="Layer2_0_MEMBER_1_FILL">
<path fill="#000000" stroke="none" d="
M 28.55 18.4
Q 29.15 19 30 19 30.85 19 31.4 18.4 32 17.85 32 17 32 16.15 31.4 15.55 30.85 15 30 15 29.15 15 28.55 15.55 28 16.15 28 17 28 17.85 28.55 18.4
M 29 17
Q 29 16 30 16 31 16 31 17 31 17.4 30.7 17.7 30.4 18 30 18 29 18 29 17 Z"/>
</g>

<g id="Layer1_0_MEMBER_0_FILL">
<path fill="#808080" stroke="none" d="
M 31.1 60
L 31.05 50 28.05 50 28.1 60 31.1 60 Z"/>
</g>

<g id="Layer1_0_MEMBER_1_FILL">
<path fill="#000000" stroke="none" d="
M 31.1 60
L 31.1 50 28.1 50 28.1 60 31.1 60
M 29.1 51
L 30.1 51 30.1 59 29.1 59 29.1 51 Z"/>
</g>

<g id="Layer0_0_MEMBER_0_FILL">
<path fill="#808080" stroke="none" d="
M 36.3 41.05
L 33.3 41.05 33.3 51 36.3 51 36.3 41.05 Z"/>
</g>

<g id="Layer0_0_MEMBER_1_FILL">
<path fill="#000000" stroke="none" d="
M 36.3 41.05
L 33.3 41.05 33.3 51 36.3 51 36.3 41.05
M 34.3 42.05
L 35.3 42.05 35.3 50 34.3 50 34.3 42.05 Z"/>
</g>
</defs>

<g transform="matrix( -0.995025634765625, 0.0839385986328125, 0.0839385986328125, 0.995025634765625, 67.45,-2.9) ">
<use xlink:href="#Layer11_0_MEMBER_0_FILL"/>
</g>

<g transform="matrix( -0.995025634765625, 0.0839385986328125, 0.0839385986328125, 0.995025634765625, 67.45,-2.9) ">
<use xlink:href="#Layer11_0_MEMBER_1_FILL"/>
</g>

<g transform="matrix( -0.9399871826171875, 0.3410797119140625, 0.3410797119140625, 0.9399871826171875, 47.45,-7.75) ">
<use xlink:href="#Layer10_0_MEMBER_0_FILL"/>
</g>

<g transform="matrix( -0.9399871826171875, 0.3410797119140625, 0.3410797119140625, 0.9399871826171875, 47.45,-7.75) ">
<use xlink:href="#Layer10_0_MEMBER_1_FILL"/>
</g>

<g transform="matrix( -0.9705963134765625, 0.231597900390625, 0.231597900390625, 0.9705963134765625, 46.9,-4.45) ">
<use xlink:href="#Layer9_0_MEMBER_0_FILL"/>
</g>

<g transform="matrix( -0.9705963134765625, 0.231597900390625, 0.231597900390625, 0.9705963134765625, 46.9,-4.45) ">
<use xlink:href="#Layer9_0_MEMBER_1_FILL"/>
</g>

<g transform="matrix( -0.90484619140625, -0.4255828857421875, -0.4255828857421875, 0.90484619140625, 76.6,19.75) ">
<use xlink:href="#Layer8_0_MEMBER_0_FILL"/>
</g>

<g transform="matrix( -0.90484619140625, -0.4255828857421875, -0.4255828857421875, 0.90484619140625, 76.6,19.75) ">
<use xlink:href="#Layer8_0_MEMBER_1_FILL"/>
</g>

<g transform="matrix( -1, 0, 0, 1, 65.5,0.15) ">
<use xlink:href="#Layer7_0_MEMBER_0_FILL"/>
</g>

<g transform="matrix( -1, 0, 0, 1, 65.5,0.15) ">
<use xlink:href="#Layer7_0_MEMBER_1_FILL"/>
</g>

<g transform="matrix( -1, 0, 0, 1, 64.5,2.15) ">
<use xlink:href="#Layer6_0_MEMBER_0_FILL"/>
</g>

<g transform="matrix( -1, 0, 0, 1, 64.5,2.15) ">
<use xlink:href="#Layer6_0_MEMBER_1_FILL"/>
</g>

<g transform="matrix( -0.5167083740234375, 0.85418701171875, -0.85418701171875, -0.5167083740234375, 90.6,23.8) ">
<use xlink:href="#Layer5_0_MEMBER_0_FILL"/>
</g>

<g transform="matrix( -0.5167083740234375, 0.85418701171875, -0.85418701171875, -0.5167083740234375, 90.6,23.8) ">
<use xlink:href="#Layer5_0_MEMBER_1_FILL"/>
</g>

<g transform="matrix( 0.9027862548828125, -0.4300384521484375, 0.4300384521484375, 0.9027862548828125, -4.55,16.35) ">
<use xlink:href="#Layer4_0_MEMBER_0_FILL"/>
</g>

<g transform="matrix( 0.9027862548828125, -0.4300384521484375, 0.4300384521484375, 0.9027862548828125, -4.55,16.35) ">
<use xlink:href="#Layer4_0_MEMBER_1_FILL"/>
</g>

<g transform="matrix( -1, 0, 0, 1, 65.5,0.8) ">
<use xlink:href="#Layer3_0_MEMBER_0_FILL"/>
</g>

<g transform="matrix( -1, 0, 0, 1, 65.5,0.8) ">
<use xlink:href="#Layer3_0_MEMBER_1_FILL"/>
</g>

<g transform="matrix( -1, 0, 0, 1, 64.85,2.25) ">
<use xlink:href="#Layer2_0_MEMBER_0_FILL"/>
</g>

<g transform="matrix( -1, 0, 0, 1, 64.85,2.25) ">
<use xlink:href="#Layer2_0_MEMBER_1_FILL"/>
</g>

<g transform="matrix( -0.6079559326171875, -0.7928619384765625, -0.7928619384765625, 0.6079559326171875, 89.3,43.25) ">
<use xlink:href="#Layer1_0_MEMBER_0_FILL"/>
</g>

<g transform="matrix( -0.6079559326171875, -0.7928619384765625, -0.7928619384765625, 0.6079559326171875, 89.3,43.25) ">
<use xlink:href="#Layer1_0_MEMBER_1_FILL"/>
</g>

<g transform="matrix( -0.9912567138671875, -0.1316680908203125, -0.1316680908203125, 0.9912567138671875, 72.4,5.4) ">
<use xlink:href="#Layer0_0_MEMBER_0_FILL"/>
</g>

<g transform="matrix( -0.9912567138671875, -0.1316680908203125, -0.1316680908203125, 0.9912567138671875, 72.4,5.4) ">
<use xlink:href="#Layer0_0_MEMBER_1_FILL"/>
</g>
</svg>
