<svg xmlns="http://www.w3.org/2000/svg" viewBox="0 0 46.94 47.21"><polygon points="3.13 21.8 12.47 2.23 34.08 0.52 46.37 18.39 37.03 37.96 15.42 39.67 3.13 21.8" style="fill:gray"/><path d="M42.36,9.44l12,17.39L45.24,45.88l-21,1.66-12-17.39,9.08-19,21-1.66m.5-1L20.67,10.15,11.09,30.24,23.7,48.59l22.19-1.75,9.58-20.1L42.86,8.4Z" transform="translate(-8.53 -8.4)"/><polygon points="3.35 42.55 0.55 29.5 10.45 20.55 23.15 24.64 25.95 37.69 16.05 46.64 3.35 42.55" style="fill:#b3b3b3"/><path d="M19.1,29.51l12.15,3.92,2.68,12.48-9.47,8.56L12.31,50.56,9.63,38.07l9.47-8.56m-.25-1.13L8.53,37.72l2.92,13.61L24.7,55.6,35,46.26,32.1,32.65,18.85,28.38Z" transform="translate(-8.53 -8.4)"/></svg>