<svg xmlns="http://www.w3.org/2000/svg" viewBox="0 0 26.5 55"><rect x="3.25" y="13.5" width="20" height="41" style="fill:#b3b3b3"/><path d="M41.5,23V63h-19V23h19m1-1h-21V64h21V22Z" transform="translate(-18.75 -9)"/><rect x="0.5" y="6.92" width="25.5" height="6.58" style="fill:#b3b3b3"/><path d="M44.25,16.42V22H19.75V16.42h24.5m1-1H18.75V23h26.5V15.42Z" transform="translate(-18.75 -9)"/><rect x="11.25" y="0.5" width="4" height="9" style="fill:#b3b3b3"/><path d="M33.5,10v8h-3V10h3m1-1h-5V19h5V9Z" transform="translate(-18.75 -9)"/><rect x="3.75" y="19.5" width="10" height="6" style="fill:#d1edff"/><path d="M32,29v5H23V29h9m1-1H22v7H33V28Z" transform="translate(-18.75 -9)"/><rect x="12.75" y="30.5" width="10" height="6" style="fill:#d1edff"/><path d="M41,40v5H32V40h9m1-1H31v7H42V39Z" transform="translate(-18.75 -9)"/><rect x="3.75" y="42.5" width="10" height="6" style="fill:#d1edff"/><path d="M32,52v5H23V52h9m1-1H22v7H33V51Z" transform="translate(-18.75 -9)"/></svg>