<svg xmlns="http://www.w3.org/2000/svg" viewBox="0 0 50.84 48.98"><polygon points="26.2 41.73 24.94 40.3 23.52 41.66 17.21 47.68 15.97 36.27 12.95 36.63 4.71 37.63 9.01 30.36 10.05 28.57 8.27 27.62 1.13 23.76 11.01 19.33 6.14 8.86 17.05 11.29 17.42 9.22 18.91 1.09 24.64 7.41 25.9 8.81 33.96 1.33 35.01 12.45 37.07 12.19 45.97 10.99 40.59 20.37 49.71 25.45 40.04 29.64 44.92 39.78 33.69 37.43 33.23 39.74 31.63 47.89 26.2 41.73" style="fill:#a6fcff"/><path d="M25.8,9.68l5,5.57.92,1,.68.76.75-.7,1-.94,5.94-5.51.75,8L41,19.49l.1,1,1-.13,1.55-.2,7.9-1.06-4.07,7.09-.56,1-.5.88.88.49,1,.54,6.82,3.81-7,3-1.3.56-.95.41.45.94L47,39.16l3.57,7.44-7.93-1.67-1.81-.38-1-.21-.2,1-.36,1.82-1.4,7.15-4.77-5.4-.91-1-.69-.79-.75.73-1,1-5.58,5.32-.81-7.39-.27-2.51-.1-1-1,.12-2.52.3-7.24.87L16,38.12l.78-1.33.53-.9-.92-.49-1.32-.71L8.84,31.31l6.44-2.89,2-.92.92-.41-.42-.92-.95-2-3.28-7,7.78,1.74,1.63.36,1,.22.18-1,.28-1.56L25.8,9.68m-.62-2.17-1.67,9.13-.28,1.56-1.63-.36-9.76-2.18L16,24.55l1,2-2.05.92L6.58,31.23l8,4.34,1.33.71-.78,1.33-4.82,8.15,9.25-1.12,2.52-.3.27,2.51,1,9.4,7.05-6.72,1-1,.91,1,6.11,6.92,1.79-9.14.36-1.82,1.81.38L52.39,48l-4.45-9.26L47.3,37.4l1.3-.56L57.42,33l-8.59-4.79-1-.54.56-1,5.07-8.85-9.9,1.33L42,19.4l-.15-1.58-1-10-7.42,6.89-1,.94-.92-1L25.18,7.51Z" transform="translate(-6.58 -7.51)"/><circle cx="25.42" cy="24.49" r="12.5" style="fill:#8db7eb"/><path d="M32,20A12,12,0,1,1,20,32,12,12,0,0,1,32,20m0-1A13,13,0,1,0,45,32,13,13,0,0,0,32,19Z" transform="translate(-6.58 -7.51)"/></svg>